<?xml version="1.0" encoding="iso-8859-1"?>
<!-- Generator: Adobe Illustrator 19.0.0, SVG Export Plug-In . SVG Version: 6.00 Build 0)  -->
<svg version="1.1" id="Layer_1" xmlns="http://www.w3.org/2000/svg" xmlns:xlink="http://www.w3.org/1999/xlink" x="0px" y="0px"
	 viewBox="0 0 469.333 469.333" style="enable-background:new 0 0 469.333 469.333;" xml:space="preserve">
<g>
	<g>
		<g>
			<path d="M426.667,0h-384C19.146,0,0,19.135,0,42.667v384c0,23.531,19.146,42.667,42.667,42.667h384
				c23.521,0,42.667-19.135,42.667-42.667v-384C469.333,19.135,450.188,0,426.667,0z M448,426.667
				c0,11.76-9.563,21.333-21.333,21.333h-384c-11.771,0-21.333-9.573-21.333-21.333v-384c0-11.76,9.563-21.333,21.333-21.333h384
				c11.771,0,21.333,9.573,21.333,21.333V426.667z"/>
			<path d="M394.667,149.333h-320C68.771,149.333,64,154.104,64,160v234.667c0,5.896,4.771,10.667,10.667,10.667h320
				c5.896,0,10.667-4.771,10.667-10.667V160C405.333,154.104,400.563,149.333,394.667,149.333z M384,384H85.333V170.667H384V384z"/>
			<path d="M138.667,213.333h192c5.896,0,10.667-4.771,10.667-10.667S336.563,192,330.667,192h-192
				c-5.896,0-10.667,4.771-10.667,10.667S132.771,213.333,138.667,213.333z"/>
			<path d="M117.333,330.667c2.729,0,5.458-1.042,7.542-3.125l64-64c4.167-4.167,4.167-10.917,0-15.083
				c-4.167-4.167-10.917-4.167-15.083,0l-64,64c-4.167,4.167-4.167,10.917,0,15.083
				C111.875,329.625,114.604,330.667,117.333,330.667z"/>
			<path d="M195.125,291.125l-42.667,42.667c-4.167,4.167-4.167,10.917,0,15.083c2.083,2.083,4.813,3.125,7.542,3.125
				c2.729,0,5.458-1.042,7.542-3.125l42.667-42.667c4.167-4.167,4.167-10.917,0-15.083
				C206.042,286.958,199.292,286.958,195.125,291.125z"/>
			<path d="M160,128h149.333c5.896,0,10.667-4.771,10.667-10.667V74.667C320,68.771,315.229,64,309.333,64H160
				c-5.896,0-10.667,4.771-10.667,10.667v42.667C149.333,123.229,154.104,128,160,128z M170.667,85.333h128v21.333h-128V85.333z"/>
			<path d="M373.333,64c-17.646,0-32,14.354-32,32c0,17.646,14.354,32,32,32s32-14.354,32-32C405.333,78.354,390.979,64,373.333,64z
				 M373.333,106.667c-5.875,0-10.667-4.781-10.667-10.667c0-5.885,4.792-10.667,10.667-10.667S384,90.115,384,96
				C384,101.885,379.208,106.667,373.333,106.667z"/>
			<path d="M96,128c17.646,0,32-14.354,32-32c0-17.646-14.354-32-32-32c-17.646,0-32,14.354-32,32C64,113.646,78.354,128,96,128z
				 M96,85.333c5.875,0,10.667,4.781,10.667,10.667c0,5.885-4.792,10.667-10.667,10.667S85.333,101.885,85.333,96
				C85.333,90.115,90.125,85.333,96,85.333z"/>
		</g>
	</g>
</g>
<g>
</g>
<g>
</g>
<g>
</g>
<g>
</g>
<g>
</g>
<g>
</g>
<g>
</g>
<g>
</g>
<g>
</g>
<g>
</g>
<g>
</g>
<g>
</g>
<g>
</g>
<g>
</g>
<g>
</g>
</svg>
